# xmcd
#
# Track frame offsets: 
#        150
#        19652
#        37187
#        56924
#        71362
#        90676
#        109249
#        130783
#        139682
#        156041
#        166816
#
# Disc length: 2439 seconds
#
# Revision: 0
# Processed by: cddbd v1.5.2PL0 Copyright (c) Steve Scherf et al.
# Submitted via: ExactAudioCopyFreeDBPlugin 1.0
#
DISCID=9109850b
DTITLE=Eduardo Paillacan - La Porfia
DYEAR=1993
DGENRE=Chanson
TTITLE0=La Porfia
TTITLE1=Sergio Castro - Adonde Patagonia
TTITLE2=Chele Diaz - ramira e maiten
TTITLE3=Ariel Manquipan - Cultura Mia
TTITLE4=Cutral Co
TTITLE5=Canale y Villafane - Este est el canto de un joven corazon
TTITLE6=Zamba del panuelo azul
TTITLE7=Gato del sur
TTITLE8=Pare, Don
TTITLE9=La renegona
TTITLE10=Hector Raul Osses - Chilotes
EXTD=
EXTT0=
EXTT1=
EXTT2=
EXTT3=
EXTT4=
EXTT5=
EXTT6=
EXTT7=
EXTT8=
EXTT9=
EXTT10=
PLAYORDER=
